<svg xmlns="http://www.w3.org/2000/svg" xmlns:xlink="http://www.w3.org/1999/xlink" width="89" height="89" viewBox="0 0 89 89">
    <defs>
        <filter id="a" width="108.2%" height="109.4%" x="-4.1%" y="-2.9%" filterUnits="objectBoundingBox">
            <feOffset dy="1" in="SourceAlpha" result="shadowOffsetOuter1"/>
            <feGaussianBlur in="shadowOffsetOuter1" result="shadowBlurOuter1" stdDeviation="1"/>
            <feColorMatrix in="shadowBlurOuter1" result="shadowMatrixOuter1" values="0 0 0 0 0 0 0 0 0 0 0 0 0 0 0 0 0 0 0.2 0"/>
            <feMerge>
                <feMergeNode in="shadowMatrixOuter1"/>
                <feMergeNode in="SourceGraphic"/>
            </feMerge>
        </filter>
        <path id="b" d="M85 71.719C85 79.024 79.023 85 71.719 85H13.28C5.976 85 0 79.024 0 71.719V13.28C0 5.976 5.976 0 13.281 0H71.72C79.023 0 85 5.976 85 13.281V71.72z"/>
    </defs>
    <g fill="none" fill-rule="evenodd" filter="url(#a)" transform="translate(2 1)">
        <use fill="#FFF" xlink:href="#b"/>
        <path stroke="#BDBDBD" stroke-opacity=".38" d="M84.5 71.719V13.28C84.5 6.253 78.747.5 71.719.5H13.28C6.252.5.5 6.252.5 13.281V71.72C.5 78.748 6.252 84.5 13.281 84.5H71.72c7.028 0 12.781-5.753 12.781-12.781z"/>
        <path fill="#29B6F6" d="M17.326 41.672v5.154c.678 0 1.152-.093 1.424-.28.272-.185.408-.789.408-1.81v-1.274c0-.736-.132-1.217-.394-1.447-.262-.23-.741-.343-1.438-.343zm-6.024-3.966h4.264c2.843 0 4.767.11 5.775.33 1.005.219 1.826.779 2.46 1.681.634.902.952 2.341.952 4.317 0 1.804-.224 3.017-.673 3.637-.448.62-1.33.993-2.647 1.117 1.193.296 1.994.692 2.404 1.188.41.496.666.952.765 1.367.101.415.15 1.559.15 3.43v6.113h-5.594v-7.703c0-1.24-.098-2.009-.294-2.305-.195-.295-.707-.444-1.538-.444v10.452h-6.024v-23.18zM34.826 43.662c0-1.079-.06-1.768-.178-2.07-.12-.3-.365-.45-.737-.45-.315 0-.557.121-.723.365-.167.244-.25.962-.25 2.155v10.824c0 1.346.055 2.176.164 2.491.11.315.365.473.766.473.41 0 .672-.182.787-.544.114-.363.171-1.227.171-2.591V43.662zm6.025 7.617c0 2.33-.055 3.978-.165 4.947a5.537 5.537 0 0 1-1.03 2.656c-.577.801-1.357 1.417-2.34 1.846-.982.43-2.127.644-3.434.644-1.24 0-2.354-.202-3.341-.608-.987-.405-1.781-1.014-2.383-1.825a5.499 5.499 0 0 1-1.073-2.649c-.114-.955-.171-2.625-.171-5.011v-3.966c0-2.329.054-3.978.164-4.947a5.545 5.545 0 0 1 1.03-2.656c.577-.802 1.357-1.417 2.34-1.847.982-.43 2.127-.644 3.434-.644 1.24 0 2.354.202 3.341.608.988.406 1.782 1.015 2.383 1.826.6.811.959 1.695 1.073 2.649.114.954.172 2.625.172 5.01v3.967zM70.227 48.172l3.456-10.466h-5.652l-2.683 9.005v-9.005h-2.442c-.684 1.008-1.97 1.82-3.582 2.27v20.91h6.024v-9.937l2.44 9.937h6.224l-3.785-12.714zM56.425 40.359c-3.2-.004-5.895-1.328-6.727-3.134-1.203.026-2.276.245-3.217.66-1.006.443-1.793 1.052-2.36 1.825-.569.774-.91 1.578-1.024 2.413-.114.835-.172 2.088-.172 3.758v6.772c0 2.272.187 3.974.559 5.105.371 1.13 1.13 2.016 2.275 2.656 1.144.639 2.599.958 4.364.958 1.698 0 3.126-.377 4.286-1.132 1.159-.755 1.907-1.634 2.246-2.639.339-1.003.508-2.704.508-5.104v-.903h-6.024v2.913c0 1.273-.07 2.081-.208 2.426-.138.344-.431.517-.88.517-.467 0-.768-.172-.9-.515-.135-.345-.201-1.08-.201-2.205V43.962c0-1.173.066-1.937.2-2.29.133-.353.448-.53.944-.53.439 0 .723.146.852.436.129.29.193 1.021.193 2.193v4.028h6.024v-2.201c0-2.164-.181-3.758-.544-4.783a4.044 4.044 0 0 0-.194-.456"/>
        <path fill="#039" d="M11.302 23.712h2.469v1.132a4.207 4.207 0 0 1 1.407-1.041 4.113 4.113 0 0 1 1.687-.344c.615 0 1.17.151 1.664.452.496.302.894.743 1.195 1.321a3.987 3.987 0 0 1 1.443-1.32 3.94 3.94 0 0 1 1.868-.453c.7 0 1.316.163 1.846.488.53.326.912.752 1.145 1.276.232.525.348 1.379.348 2.562v5.772h-2.486v-4.995c0-1.115-.139-1.871-.417-2.266-.276-.395-.692-.593-1.247-.593-.422 0-.8.12-1.135.362a2.143 2.143 0 0 0-.746 1c-.162.425-.244 1.108-.244 2.05v4.442h-2.485v-4.769c0-.88-.066-1.518-.195-1.913-.13-.395-.325-.69-.585-.883-.26-.192-.574-.289-.942-.289-.412 0-.785.122-1.12.367-.335.244-.586.586-.752 1.027-.166.44-.25 1.134-.25 2.08v4.38h-2.468v-9.845z"/>
        <path fill="#003296" d="M33.39 25.74c-.763 0-1.397.269-1.901.81-.505.54-.757 1.231-.757 2.076 0 .85.257 1.55.77 2.099a2.494 2.494 0 0 0 1.897.823c.775 0 1.418-.27 1.928-.81.511-.54.766-1.247.766-2.122 0-.856-.255-1.55-.766-2.08-.51-.531-1.156-.797-1.937-.797zm2.595-2.027h2.468v9.844h-2.468v-1.04c-.482.458-.965.788-1.45.99a4.058 4.058 0 0 1-1.575.304c-1.27 0-2.37-.494-3.296-1.48-.928-.986-1.392-2.212-1.392-3.679 0-1.52.45-2.765 1.346-3.736.898-.971 1.987-1.457 3.27-1.457.59 0 1.143.112 1.661.335.518.223.996.558 1.436 1.004v-1.085zM40.949 23.712h2.467v1.009c.56-.472 1.068-.8 1.522-.985.454-.184.92-.277 1.395-.277.975 0 1.802.341 2.482 1.023.573.578.858 1.435.858 2.57v6.505h-2.44v-4.311c0-1.175-.053-1.955-.159-2.34-.105-.387-.289-.68-.55-.882-.262-.202-.585-.303-.97-.303-.499 0-.927.167-1.285.502-.358.335-.605.797-.744 1.387-.073.308-.109.974-.109 1.997v3.95H40.95v-9.845zM56.77 25.766c-.777 0-1.419.262-1.925.783-.506.522-.76 1.178-.76 1.968 0 .82.26 1.493.778 2.018.518.525 1.169.787 1.953.787.765 0 1.397-.257 1.894-.77.497-.512.746-1.185.746-2.017 0-.82-.25-1.487-.75-2-.5-.512-1.146-.769-1.935-.769zm2.56-2.054h2.459v8.434c0 1.664-.335 2.889-1.004 3.673-.898 1.062-2.251 1.592-4.06 1.592-.964 0-1.775-.12-2.431-.362a4.364 4.364 0 0 1-1.664-1.063 4.339 4.339 0 0 1-1.004-1.706h2.722c.24.278.551.488.931.63.38.141.829.212 1.347.212.663 0 1.197-.102 1.6-.307.404-.205.689-.47.855-.797.165-.325.248-.886.248-1.683-.434.435-.889.747-1.365.937-.476.19-1.015.285-1.618.285-1.32 0-2.436-.476-3.346-1.43-.91-.953-1.365-2.16-1.365-3.62 0-1.561.482-2.816 1.447-3.763.874-.856 1.916-1.285 3.128-1.285.566 0 1.102.104 1.605.313.503.208 1.008.55 1.514 1.026v-1.086zM68.95 25.74c-.763 0-1.397.269-1.902.81-.505.54-.757 1.231-.757 2.076 0 .85.256 1.55.77 2.099a2.494 2.494 0 0 0 1.897.823c.775 0 1.418-.27 1.929-.81.51-.54.765-1.247.765-2.122 0-.856-.255-1.55-.765-2.08-.511-.531-1.157-.797-1.938-.797zm2.594-2.027h2.469v9.844h-2.469v-1.04c-.482.458-.965.788-1.45.99a4.06 4.06 0 0 1-1.575.304c-1.271 0-2.37-.494-3.297-1.48-.926-.986-1.39-2.212-1.39-3.679 0-1.52.448-2.765 1.346-3.736.896-.971 1.986-1.457 3.268-1.457.59 0 1.144.112 1.662.335.518.223.996.558 1.436 1.004v-1.085z"/>
    </g>
</svg>
