<svg xmlns="http://www.w3.org/2000/svg" width="100" height="50" viewBox="0 0 100 50">
    <g fill="none" fill-rule="evenodd">
        <path fill="#E6E6E6" d="M6.498 28.087v5.56c.73 0 1.243-.1 1.536-.302.293-.2.44-.851.44-1.954v-1.373c0-.793-.142-1.313-.425-1.56-.283-.248-.8-.371-1.55-.371zM0 23.809h4.6c3.066 0 5.142.118 6.228.355 1.085.237 1.97.841 2.654 1.815.684.973 1.026 2.525 1.026 4.656 0 1.946-.241 3.254-.725 3.923-.483.669-1.435 1.07-2.855 1.204 1.286.32 2.15.747 2.593 1.283.442.534.718 1.026.825 1.474.109.448.162 1.681.162 3.699v6.594H8.474v-8.309c0-1.337-.106-2.166-.317-2.486-.21-.318-.763-.479-1.659-.479v11.274H0V23.81zM25.344 30.759c0-1.164-.064-1.907-.192-2.232-.13-.324-.394-.487-.796-.487-.339 0-.6.132-.78.395-.18.262-.269 1.037-.269 2.324v11.675c0 1.452.059 2.347.177 2.687.118.34.394.51.826.51.442 0 .725-.196.85-.587.122-.391.184-1.322.184-2.795V30.76zm6.498 8.216c0 2.512-.06 4.29-.178 5.336a5.972 5.972 0 0 1-1.11 2.865c-.623.864-1.465 1.528-2.524 1.992-1.06.463-2.295.694-3.704.694-1.338 0-2.54-.218-3.604-.656-1.065-.437-1.922-1.094-2.57-1.968-.648-.876-1.034-1.829-1.158-2.858-.123-1.03-.185-2.831-.185-5.405v-4.278c0-2.512.059-4.29.177-5.336.119-1.045.49-2 1.112-2.865.622-.865 1.463-1.529 2.523-1.992 1.06-.464 2.295-.695 3.705-.695 1.337 0 2.539.219 3.604.656 1.065.438 1.921 1.094 2.57 1.97.648.875 1.034 1.828 1.157 2.857.123 1.029.185 2.831.185 5.405v4.278zM63.716 35.099l3.728-11.29h-6.097l-2.894 9.714V23.81H55.82c-.737 1.087-2.126 1.964-3.864 2.449v22.554h6.498V38.094l2.632 10.718h6.713L63.716 35.1zM48.18 27.19c-3.453-.004-6.36-1.433-7.257-3.381-1.297.029-2.455.265-3.47.712-1.085.478-1.934 1.135-2.546 1.969-.613.834-.98 1.702-1.104 2.602-.123.901-.185 2.253-.185 4.054v7.305c0 2.45.2 4.286.602 5.506.401 1.22 1.22 2.175 2.454 2.865 1.235.69 2.803 1.034 4.707 1.034 1.832 0 3.373-.407 4.624-1.222 1.25-.814 2.057-1.762 2.422-2.846.366-1.082.548-2.917.548-5.505v-.975h-6.498v3.143c0 1.373-.074 2.245-.224 2.617-.149.371-.465.557-.949.557-.504 0-.828-.185-.972-.556-.144-.371-.216-1.164-.216-2.378V31.077c0-1.266.072-2.09.216-2.471.144-.38.483-.572 1.019-.572.473 0 .78.158.918.47.14.314.208 1.103.208 2.366v4.345h6.498v-2.374c0-2.334-.195-4.053-.587-5.16a4.362 4.362 0 0 0-.209-.491M0 8.8h2.663v1.221A4.538 4.538 0 0 1 4.18 8.899 4.437 4.437 0 0 1 6 8.529c.664 0 1.262.162 1.796.487.534.325.963.8 1.288 1.424a4.3 4.3 0 0 1 1.557-1.424 4.25 4.25 0 0 1 2.015-.488c.755 0 1.418.175 1.99.527.573.351.985.81 1.235 1.376.251.566.376 1.486.376 2.762v6.227h-2.681v-5.388c0-1.203-.15-2.018-.45-2.445-.298-.425-.747-.638-1.345-.638-.456 0-.864.13-1.224.39s-.629.62-.805 1.078c-.175.459-.263 1.196-.263 2.21v4.793H6.808v-5.144c0-.949-.07-1.637-.21-2.064-.141-.426-.351-.743-.632-.952-.28-.208-.618-.311-1.016-.311-.444 0-.846.131-1.208.395-.361.263-.632.632-.81 1.107-.18.476-.27 1.224-.27 2.245v4.724H0V8.8zM23.857 10.988c-.823 0-1.506.29-2.05.874-.545.582-.817 1.328-.817 2.239 0 .918.277 1.673.831 2.265a2.69 2.69 0 0 0 2.045.887c.837 0 1.53-.29 2.081-.873.55-.582.826-1.345.826-2.289 0-.924-.275-1.672-.826-2.245-.55-.572-1.247-.858-2.09-.858zm2.799-2.186h2.663V19.42h-2.663v-1.122c-.52.494-1.04.85-1.563 1.069a4.377 4.377 0 0 1-1.7.327c-1.37 0-2.555-.533-3.555-1.596-1.001-1.064-1.5-2.386-1.5-3.968 0-1.64.483-2.983 1.45-4.03.969-1.048 2.144-1.572 3.527-1.572.636 0 1.234.12 1.792.361.559.241 1.075.603 1.549 1.084V8.802zM32.09 8.8h2.662V9.89c.604-.509 1.151-.863 1.641-1.062.49-.2.992-.299 1.504-.299 1.052 0 1.945.368 2.678 1.103.618.624.926 1.548.926 2.772v7.017h-2.633v-4.65c0-1.268-.057-2.11-.17-2.525-.114-.416-.312-.733-.594-.95-.282-.218-.63-.327-1.046-.327-.538 0-1 .18-1.386.54-.386.362-.654.86-.803 1.497-.078.332-.117 1.05-.117 2.154v4.26H32.09V8.802zM49.1 11.017c-.84 0-1.531.282-2.078.844-.545.563-.819 1.27-.819 2.123 0 .885.28 1.61.84 2.176.558.566 1.26.849 2.106.849.825 0 1.506-.277 2.043-.83.536-.552.804-1.278.804-2.176 0-.885-.27-1.603-.81-2.157-.539-.553-1.235-.83-2.086-.83zM51.86 8.8h2.652v9.097c0 1.795-.36 3.116-1.082 3.962-.97 1.145-2.428 1.717-4.38 1.717-1.039 0-1.914-.13-2.622-.39a4.707 4.707 0 0 1-1.795-1.147 4.68 4.68 0 0 1-1.082-1.84h2.935c.26.3.595.526 1.005.679.41.153.894.23 1.453.23.714 0 1.29-.11 1.726-.333.435-.22.743-.507.921-.858.18-.352.269-.957.269-1.816-.469.469-.96.806-1.473 1.01-.514.205-1.095.308-1.746.308-1.424 0-2.626-.514-3.608-1.542-.982-1.028-1.473-2.33-1.473-3.904 0-1.685.52-3.038 1.56-4.06.944-.924 2.068-1.386 3.375-1.386.61 0 1.189.112 1.731.337.542.225 1.087.594 1.634 1.107V8.801zM62.06 10.988c-.823 0-1.507.29-2.051.874-.545.582-.817 1.328-.817 2.239 0 .918.277 1.673.831 2.265a2.69 2.69 0 0 0 2.046.887c.836 0 1.53-.29 2.08-.873.551-.582.826-1.345.826-2.289 0-.924-.275-1.672-.826-2.245-.55-.572-1.247-.858-2.09-.858zm2.798-2.186h2.663V19.42h-2.663v-1.122c-.52.494-1.041.85-1.563 1.069a4.38 4.38 0 0 1-1.7.327c-1.37 0-2.556-.533-3.556-1.596-1-1.064-1.5-2.386-1.5-3.968 0-1.64.484-2.983 1.452-4.03.967-1.048 2.142-1.572 3.526-1.572.637 0 1.234.12 1.793.361.558.241 1.074.603 1.548 1.084V8.802z"/>
        <path fill="#29B6F6" d="M6.498 26.559v5.56c.73 0 1.243-.1 1.536-.302.293-.2.44-.851.44-1.954V28.49c0-.794-.142-1.313-.425-1.56-.283-.248-.8-.371-1.55-.371zM0 22.28h4.6c3.066 0 5.142.118 6.228.355 1.085.237 1.97.841 2.654 1.815.684.972 1.026 2.525 1.026 4.656 0 1.946-.241 3.254-.725 3.922-.483.67-1.435 1.072-2.855 1.205 1.286.32 2.15.747 2.593 1.282.442.535.718 1.027.825 1.475.109.448.162 1.681.162 3.699v6.594H8.474v-8.309c0-1.338-.106-2.167-.317-2.486-.21-.319-.763-.479-1.659-.479v11.274H0V22.281zM25.344 28.467c0-1.164-.064-1.907-.192-2.232-.13-.324-.394-.487-.796-.487-.339 0-.6.132-.78.394-.18.263-.269 1.038-.269 2.325v11.675c0 1.452.059 2.347.177 2.687.118.34.394.51.826.51.442 0 .725-.196.85-.587.122-.391.184-1.323.184-2.795v-11.49zm6.498 8.215c0 2.513-.06 4.291-.178 5.336a5.972 5.972 0 0 1-1.11 2.866c-.623.864-1.465 1.528-2.524 1.992-1.06.463-2.295.694-3.704.694-1.338 0-2.54-.218-3.604-.656-1.065-.437-1.922-1.094-2.57-1.968-.648-.876-1.034-1.829-1.158-2.858-.123-1.03-.185-2.832-.185-5.406v-4.278c0-2.51.059-4.29.177-5.335.119-1.045.49-2 1.112-2.865.622-.865 1.463-1.529 2.523-1.993 1.06-.463 2.295-.694 3.705-.694 1.337 0 2.539.218 3.604.656 1.065.438 1.921 1.094 2.57 1.97.648.875 1.034 1.827 1.157 2.857.123 1.029.185 2.831.185 5.404v4.278zM63.716 33.57l3.728-11.29h-6.097l-2.894 9.715v-9.714H55.82c-.737 1.087-2.126 1.964-3.864 2.449v22.554h6.498V36.566l2.632 10.718h6.713L63.716 33.57zM48.18 24.898c-3.453-.004-6.36-1.433-7.257-3.381-1.297.029-2.455.265-3.47.712-1.085.478-1.934 1.135-2.546 1.969-.613.834-.98 1.701-1.104 2.602-.123.901-.185 2.253-.185 4.054v7.305c0 2.45.2 4.286.602 5.506.401 1.22 1.22 2.175 2.454 2.865 1.235.69 2.803 1.034 4.707 1.034 1.832 0 3.373-.407 4.624-1.222 1.25-.814 2.057-1.762 2.422-2.846.366-1.082.548-2.917.548-5.506v-.974h-6.498v3.143c0 1.373-.074 2.245-.224 2.617-.149.371-.465.557-.949.557-.504 0-.828-.185-.972-.556-.144-.371-.216-1.164-.216-2.378V28.784c0-1.266.072-2.09.216-2.47.144-.381.483-.572 1.019-.572.473 0 .78.157.918.47.14.314.208 1.102.208 2.366v4.345h6.498V30.55c0-2.335-.195-4.054-.587-5.16a4.362 4.362 0 0 0-.209-.491"/>
        <path fill="#039" d="M0 7.273h2.663v1.22A4.538 4.538 0 0 1 4.18 7.37 4.437 4.437 0 0 1 6 7c.664 0 1.262.163 1.796.487.534.326.963.801 1.288 1.425a4.3 4.3 0 0 1 1.557-1.425A4.25 4.25 0 0 1 12.656 7c.755 0 1.418.175 1.99.526.573.352.985.811 1.235 1.376.251.567.376 1.487.376 2.763v6.226h-2.681v-5.387c0-1.203-.15-2.018-.45-2.445-.298-.425-.747-.639-1.345-.639-.456 0-.864.13-1.224.39-.36.261-.629.62-.805 1.079-.175.458-.263 1.196-.263 2.21v4.792H6.808v-5.143c0-.949-.07-1.637-.21-2.064-.141-.426-.351-.743-.632-.952-.28-.208-.618-.312-1.016-.312-.444 0-.846.132-1.208.396-.361.263-.632.632-.81 1.107-.18.476-.27 1.224-.27 2.245v4.723H0V7.273z"/>
        <path fill="#003296" d="M23.857 9.46c-.823 0-1.506.29-2.05.874-.545.582-.817 1.328-.817 2.239 0 .918.277 1.672.831 2.265a2.69 2.69 0 0 0 2.045.887c.837 0 1.53-.29 2.081-.873.55-.582.826-1.345.826-2.289 0-.924-.275-1.672-.826-2.245-.55-.572-1.247-.859-2.09-.859zm2.799-2.186h2.663v10.618h-2.663V16.77c-.52.494-1.04.85-1.563 1.069a4.377 4.377 0 0 1-1.7.327c-1.37 0-2.555-.533-3.555-1.596-1.001-1.064-1.5-2.386-1.5-3.968 0-1.64.483-2.983 1.45-4.03C20.758 7.524 21.933 7 23.316 7c.636 0 1.234.12 1.792.361.559.241 1.075.602 1.549 1.084V7.274zM32.09 7.273h2.662V8.36c.604-.51 1.151-.863 1.641-1.062.49-.2.992-.299 1.504-.299 1.052 0 1.945.368 2.678 1.103.618.624.926 1.548.926 2.771v7.017h-2.633v-4.65c0-1.267-.057-2.108-.17-2.524-.114-.416-.312-.733-.594-.95-.282-.218-.63-.327-1.046-.327-.538 0-1 .18-1.386.54-.386.362-.654.86-.803 1.497-.078.332-.117 1.05-.117 2.154v4.26H32.09V7.273zM49.1 9.488c-.84 0-1.531.282-2.078.845-.545.563-.819 1.27-.819 2.123 0 .885.28 1.61.84 2.176.558.566 1.26.849 2.106.849.825 0 1.506-.277 2.043-.83.536-.552.804-1.278.804-2.176 0-.885-.27-1.604-.81-2.157-.539-.553-1.235-.83-2.086-.83zm2.76-2.215h2.652v9.096c0 1.796-.36 3.117-1.082 3.963-.97 1.145-2.428 1.717-4.38 1.717-1.039 0-1.914-.13-2.622-.39a4.707 4.707 0 0 1-1.795-1.147 4.68 4.68 0 0 1-1.082-1.84h2.935c.26.3.595.526 1.005.679.41.153.894.229 1.453.229.714 0 1.29-.11 1.726-.332.435-.22.743-.507.921-.858.18-.352.269-.957.269-1.816-.469.469-.96.806-1.473 1.01-.514.205-1.095.308-1.746.308-1.424 0-2.626-.514-3.608-1.542-.982-1.028-1.473-2.33-1.473-3.905 0-1.684.52-3.037 1.56-4.059C46.065 7.462 47.189 7 48.496 7c.61 0 1.189.112 1.731.337.542.225 1.087.594 1.634 1.107V7.273zM62.06 9.46c-.823 0-1.507.29-2.051.874-.545.582-.817 1.328-.817 2.239 0 .918.277 1.672.831 2.265a2.69 2.69 0 0 0 2.046.887c.836 0 1.53-.29 2.08-.873.551-.582.826-1.345.826-2.289 0-.924-.275-1.672-.826-2.245-.55-.572-1.247-.859-2.09-.859zm2.798-2.186h2.663v10.618h-2.663V16.77c-.52.494-1.041.85-1.563 1.069a4.38 4.38 0 0 1-1.7.327c-1.37 0-2.556-.533-3.556-1.596-1-1.064-1.5-2.386-1.5-3.968 0-1.64.484-2.983 1.452-4.03C58.958 7.524 60.133 7 61.517 7c.637 0 1.234.12 1.793.361.558.241 1.074.602 1.548 1.084V7.274z"/>
        <g>
            <path fill="#E6E6E6" d="M76 16h22.007A2.004 2.004 0 0 0 100 13.994V4.006A1.999 1.999 0 0 0 98.007 2H72.993A2.004 2.004 0 0 0 71 4.006V20c0 .552.313.687.706.294L76 16z"/>
            <path fill="#FA5521" d="M76 14h22.007A2.004 2.004 0 0 0 100 11.994V2.006A1.999 1.999 0 0 0 98.007 0H72.993A2.004 2.004 0 0 0 71 2.006V18c0 .552.313.687.706.294L76 14z"/>
            <path fill="#FFF" d="M74.65 10V3.602h2.193c.346 0 .657.034.932.103.275.069.508.173.699.314.19.14.336.32.437.538.101.219.151.477.151.776 0 .293-.079.557-.237.791-.158.234-.39.416-.694.545.184.05.345.122.481.217a1.342 1.342 0 0 1 .538.763c.044.155.066.316.066.483 0 .308-.05.578-.151.811a1.528 1.528 0 0 1-.44.585 1.94 1.94 0 0 1-.698.353 3.35 3.35 0 0 1-.93.119H74.65zm1.112-2.887v2h1.235c.182 0 .342-.024.481-.071a.959.959 0 0 0 .35-.2.822.822 0 0 0 .21-.31c.047-.12.07-.253.07-.4 0-.316-.083-.565-.25-.747-.167-.181-.438-.272-.813-.272h-1.283zm0-.818h1.09c.346 0 .616-.078.81-.235.196-.156.293-.378.293-.665 0-.317-.09-.545-.27-.686-.18-.14-.46-.211-.842-.211h-1.08v1.797zm8.306.849H81.44v1.968h3.072V10h-4.184V3.602h4.153v.896H81.44v1.767h2.628v.879zm5.972-2.646h-1.995V10h-1.103V4.498h-1.978v-.896h5.076v.896zm4.42 4.012h-2.478L91.464 10h-1.156l2.417-6.398h.998L96.144 10h-1.16l-.523-1.49zm-2.166-.896h1.855l-.927-2.655-.928 2.655z"/>
        </g>
    </g>
</svg>
